<svg width="176" height="60" viewBox="0 0 176 60" fill="none" xmlns="http://www.w3.org/2000/svg">
<path d="M27.5002 9.99976C17.8342 9.99976 10.0005 17.8343 10.0005 27.4995C9.99974 37.1648 17.8342 45 27.5002 45H45V27.5003C45 17.8343 37.1662 9.99976 27.5002 9.99976ZM40.0005 39.9998H27.5002C20.5957 39.9998 15 34.404 15 27.5003C15 20.5965 20.5957 15 27.5002 15C34.4047 15 40.0005 20.5958 40.0005 27.5003V39.9998Z" fill="#8BC34A"/>
<path d="M54.9998 54.9998H60V60H54.9998V54.9998Z" fill="#8BC34A"/>
<path d="M45 50.0002H50.0002V54.9997H45V50.0002Z" fill="#8BC34A"/>
<path d="M50.0002 45H54.9997V50.0002H50.0002V45Z" fill="#8BC34A"/>
<path d="M27.5002 50.0003C15.0735 50.0003 5.00025 39.9255 5.00025 27.5003C5.00025 15.0743 15.0735 5.00025 27.5002 5.00025C39.927 5.00025 50.0002 15.0735 50.0002 27.5003V40.0005H54.9998V27.5003C54.9998 12.3128 42.6877 0 27.5002 0C12.3127 0 0 12.3128 0 27.5003C0 42.6885 12.3127 55.0005 27.5002 55.0005H40.0005V50.001L27.5002 50.0003Z" fill="white"/>
<path d="M27.5002 20.0002C23.3572 20.0002 20.0002 23.3572 20.0002 27.5002C20.0002 31.6432 23.3572 35.0002 27.5002 35.0002H35.0002V27.5002C35.0002 23.3572 31.6417 20.0002 27.5002 20.0002ZM30 30H27.5002C26.1195 30 25.0005 28.8802 25.0005 27.5002C25.0005 26.1202 26.1195 25.0005 27.5002 25.0005C28.8825 25.0005 30 26.1195 30 27.5002V30Z" fill="white"/>
<path d="M82.3711 21.2695C82.3711 23.1992 82 24.8125 81.2578 26.1094C80.5234 27.3984 79.457 28.3711 78.0586 29.0273C76.6602 29.6758 74.9766 30 73.0078 30H68.1562V12.8672H73.5352C75.332 12.8672 76.8906 13.1875 78.2109 13.8281C79.5312 14.4609 80.5547 15.4023 81.2812 16.6523C82.0078 17.8945 82.3711 19.4336 82.3711 21.2695ZM78.5977 21.3633C78.5977 20.0977 78.4102 19.0586 78.0352 18.2461C77.668 17.4258 77.1211 16.8203 76.3945 16.4297C75.6758 16.0391 74.7852 15.8438 73.7227 15.8438H71.7891V27H73.3477C75.1211 27 76.4375 26.5273 77.2969 25.582C78.1641 24.6367 78.5977 23.2305 78.5977 21.3633ZM89.2148 16.8984V30H85.6406V16.8984H89.2148ZM87.4336 11.7656C87.9648 11.7656 88.4219 11.8906 88.8047 12.1406C89.1875 12.3828 89.3789 12.8398 89.3789 13.5117C89.3789 14.1758 89.1875 14.6367 88.8047 14.8945C88.4219 15.1445 87.9648 15.2695 87.4336 15.2695C86.8945 15.2695 86.4336 15.1445 86.0508 14.8945C85.6758 14.6367 85.4883 14.1758 85.4883 13.5117C85.4883 12.8398 85.6758 12.3828 86.0508 12.1406C86.4336 11.8906 86.8945 11.7656 87.4336 11.7656ZM96.5508 30H92.9766V11.7656H96.5508V30ZM103.887 16.8984V30H100.312V16.8984H103.887ZM102.105 11.7656C102.637 11.7656 103.094 11.8906 103.477 12.1406C103.859 12.3828 104.051 12.8398 104.051 13.5117C104.051 14.1758 103.859 14.6367 103.477 14.8945C103.094 15.1445 102.637 15.2695 102.105 15.2695C101.566 15.2695 101.105 15.1445 100.723 14.8945C100.348 14.6367 100.16 14.1758 100.16 13.5117C100.16 12.8398 100.348 12.3828 100.723 12.1406C101.105 11.8906 101.566 11.7656 102.105 11.7656ZM111.48 35.7656C109.652 35.7656 108.254 35.4453 107.285 34.8047C106.324 34.1719 105.844 33.2812 105.844 32.1328C105.844 31.3438 106.09 30.6836 106.582 30.1523C107.074 29.6211 107.797 29.2422 108.75 29.0156C108.383 28.8594 108.062 28.6055 107.789 28.2539C107.516 27.8945 107.379 27.5156 107.379 27.1172C107.379 26.6172 107.523 26.2031 107.812 25.875C108.102 25.5391 108.52 25.2109 109.066 24.8906C108.379 24.5938 107.832 24.1172 107.426 23.4609C107.027 22.8047 106.828 22.0312 106.828 21.1406C106.828 20.1875 107.035 19.3789 107.449 18.7148C107.871 18.043 108.48 17.5312 109.277 17.1797C110.082 16.8281 111.059 16.6523 112.207 16.6523C112.449 16.6523 112.73 16.668 113.051 16.6992C113.371 16.7305 113.664 16.7656 113.93 16.8047C114.203 16.8438 114.387 16.875 114.48 16.8984H119.051V18.7148L117 19.2422C117.188 19.5312 117.328 19.8398 117.422 20.168C117.516 20.4961 117.562 20.8438 117.562 21.2109C117.562 22.6172 117.07 23.7148 116.086 24.5039C115.109 25.2852 113.75 25.6758 112.008 25.6758C111.594 25.6523 111.203 25.6211 110.836 25.582C110.656 25.7227 110.52 25.8711 110.426 26.0273C110.332 26.1836 110.285 26.3477 110.285 26.5195C110.285 26.6914 110.355 26.8359 110.496 26.9531C110.645 27.0625 110.863 27.1484 111.152 27.2109C111.449 27.2656 111.816 27.293 112.254 27.293H114.48C115.918 27.293 117.012 27.6016 117.762 28.2188C118.52 28.8359 118.898 29.7422 118.898 30.9375C118.898 32.4688 118.258 33.6562 116.977 34.5C115.703 35.3438 113.871 35.7656 111.48 35.7656ZM111.633 33.4336C112.484 33.4336 113.215 33.3516 113.824 33.1875C114.441 33.0312 114.914 32.8047 115.242 32.5078C115.57 32.2188 115.734 31.8711 115.734 31.4648C115.734 31.1367 115.637 30.875 115.441 30.6797C115.254 30.4922 114.965 30.3594 114.574 30.2812C114.191 30.2031 113.699 30.1641 113.098 30.1641H111.246C110.809 30.1641 110.414 30.2344 110.062 30.375C109.719 30.5156 109.445 30.7109 109.242 30.9609C109.039 31.2188 108.938 31.5156 108.938 31.8516C108.938 32.3438 109.172 32.7305 109.641 33.0117C110.117 33.293 110.781 33.4336 111.633 33.4336ZM112.207 23.4961C112.879 23.4961 113.371 23.2891 113.684 22.875C113.996 22.4609 114.152 21.8984 114.152 21.1875C114.152 20.3984 113.988 19.8086 113.66 19.418C113.34 19.0195 112.855 18.8203 112.207 18.8203C111.551 18.8203 111.059 19.0195 110.73 19.418C110.402 19.8086 110.238 20.3984 110.238 21.1875C110.238 21.8984 110.398 22.4609 110.719 22.875C111.047 23.2891 111.543 23.4961 112.207 23.4961ZM126.621 16.6523C127.832 16.6523 128.875 16.8867 129.75 17.3555C130.625 17.8164 131.301 18.4883 131.777 19.3711C132.254 20.2539 132.492 21.332 132.492 22.6055V24.3398H124.043C124.082 25.3477 124.383 26.1406 124.945 26.7188C125.516 27.2891 126.305 27.5742 127.312 27.5742C128.148 27.5742 128.914 27.4883 129.609 27.3164C130.305 27.1445 131.02 26.8867 131.754 26.543V29.3086C131.105 29.6289 130.426 29.8633 129.715 30.0117C129.012 30.1602 128.156 30.2344 127.148 30.2344C125.836 30.2344 124.672 29.9922 123.656 29.5078C122.648 29.0234 121.855 28.2852 121.277 27.293C120.707 26.3008 120.422 25.0508 120.422 23.543C120.422 22.0117 120.68 20.7383 121.195 19.7227C121.719 18.6992 122.445 17.9336 123.375 17.4258C124.305 16.9102 125.387 16.6523 126.621 16.6523ZM126.645 19.1953C125.949 19.1953 125.371 19.418 124.91 19.8633C124.457 20.3086 124.195 21.0078 124.125 21.9609H129.141C129.133 21.4297 129.035 20.957 128.848 20.543C128.668 20.1289 128.395 19.8008 128.027 19.5586C127.668 19.3164 127.207 19.1953 126.645 19.1953ZM142.84 16.6523C144.238 16.6523 145.363 17.0352 146.215 17.8008C147.066 18.5586 147.492 19.7773 147.492 21.457V30H143.918V22.3477C143.918 21.4102 143.746 20.7031 143.402 20.2266C143.066 19.75 142.535 19.5117 141.809 19.5117C140.715 19.5117 139.969 19.8828 139.57 20.625C139.172 21.3672 138.973 22.4375 138.973 23.8359V30H135.398V16.8984H138.129L138.609 18.5742H138.809C139.09 18.1211 139.438 17.7539 139.852 17.4727C140.273 17.1914 140.738 16.9844 141.246 16.8516C141.762 16.7188 142.293 16.6523 142.84 16.6523ZM156.492 30.2344C155.195 30.2344 154.09 30 153.176 29.5312C152.262 29.0547 151.566 28.3203 151.09 27.3281C150.613 26.3359 150.375 25.0664 150.375 23.5195C150.375 21.918 150.645 20.6133 151.184 19.6055C151.73 18.5898 152.484 17.8438 153.445 17.3672C154.414 16.8906 155.535 16.6523 156.809 16.6523C157.715 16.6523 158.496 16.7422 159.152 16.9219C159.816 17.0938 160.395 17.3008 160.887 17.543L159.832 20.3086C159.27 20.082 158.746 19.8984 158.262 19.7578C157.777 19.6094 157.293 19.5352 156.809 19.5352C156.184 19.5352 155.664 19.6836 155.25 19.9805C154.836 20.2695 154.527 20.707 154.324 21.293C154.121 21.8789 154.02 22.6133 154.02 23.4961C154.02 24.3633 154.129 25.082 154.348 25.6523C154.566 26.2227 154.883 26.6484 155.297 26.9297C155.711 27.2031 156.215 27.3398 156.809 27.3398C157.551 27.3398 158.211 27.2422 158.789 27.0469C159.367 26.8438 159.93 26.5625 160.477 26.2031V29.2617C159.93 29.6055 159.355 29.8516 158.754 30C158.16 30.1562 157.406 30.2344 156.492 30.2344ZM168.926 16.6523C170.137 16.6523 171.18 16.8867 172.055 17.3555C172.93 17.8164 173.605 18.4883 174.082 19.3711C174.559 20.2539 174.797 21.332 174.797 22.6055V24.3398H166.348C166.387 25.3477 166.688 26.1406 167.25 26.7188C167.82 27.2891 168.609 27.5742 169.617 27.5742C170.453 27.5742 171.219 27.4883 171.914 27.3164C172.609 27.1445 173.324 26.8867 174.059 26.543V29.3086C173.41 29.6289 172.73 29.8633 172.02 30.0117C171.316 30.1602 170.461 30.2344 169.453 30.2344C168.141 30.2344 166.977 29.9922 165.961 29.5078C164.953 29.0234 164.16 28.2852 163.582 27.293C163.012 26.3008 162.727 25.0508 162.727 23.543C162.727 22.0117 162.984 20.7383 163.5 19.7227C164.023 18.6992 164.75 17.9336 165.68 17.4258C166.609 16.9102 167.691 16.6523 168.926 16.6523ZM168.949 19.1953C168.254 19.1953 167.676 19.418 167.215 19.8633C166.762 20.3086 166.5 21.0078 166.43 21.9609H171.445C171.438 21.4297 171.34 20.957 171.152 20.543C170.973 20.1289 170.699 19.8008 170.332 19.5586C169.973 19.3164 169.512 19.1953 168.949 19.1953Z" fill="white"/>
<path d="M157.098 48H155.287V44.3027H151.895V48H150.078V39.4336H151.895V42.791H155.287V39.4336H157.098V48ZM166.238 39.4336V44.9766C166.238 45.5664 166.107 46.0996 165.846 46.5762C165.588 47.0488 165.195 47.4238 164.668 47.7012C164.145 47.9785 163.484 48.1172 162.688 48.1172C161.555 48.1172 160.691 47.8281 160.098 47.25C159.504 46.6719 159.207 45.9062 159.207 44.9531V39.4336H161.018V44.6777C161.018 45.3848 161.162 45.8809 161.451 46.166C161.74 46.4512 162.168 46.5938 162.734 46.5938C163.133 46.5938 163.455 46.5254 163.701 46.3887C163.951 46.252 164.135 46.041 164.252 45.7559C164.369 45.4707 164.428 45.1074 164.428 44.666V39.4336H166.238ZM168.336 39.4336H171.002C172.143 39.4336 173.006 39.5938 173.592 39.9141C174.178 40.2344 174.471 40.7969 174.471 41.6016C174.471 41.9258 174.418 42.2188 174.312 42.4805C174.211 42.7422 174.062 42.957 173.867 43.125C173.672 43.293 173.434 43.4023 173.152 43.4531V43.5117C173.438 43.5703 173.695 43.6719 173.926 43.8164C174.156 43.957 174.34 44.1641 174.477 44.4375C174.617 44.707 174.688 45.0664 174.688 45.5156C174.688 46.0352 174.561 46.4805 174.307 46.8516C174.053 47.2227 173.689 47.5078 173.217 47.707C172.748 47.9023 172.189 48 171.541 48H168.336V39.4336ZM170.152 42.8262H171.207C171.734 42.8262 172.1 42.7441 172.303 42.5801C172.506 42.4121 172.607 42.166 172.607 41.8418C172.607 41.5137 172.486 41.2793 172.244 41.1387C172.006 40.9941 171.627 40.9219 171.107 40.9219H170.152V42.8262ZM170.152 44.2676V46.5H171.336C171.883 46.5 172.264 46.3945 172.479 46.1836C172.693 45.9727 172.801 45.6895 172.801 45.334C172.801 45.123 172.754 44.9375 172.66 44.7773C172.566 44.6172 172.408 44.4922 172.186 44.4023C171.967 44.3125 171.664 44.2676 171.277 44.2676H170.152Z" fill="#8BC34A"/>
</svg>
